<svg xmlns="http://www.w3.org/2000/svg" viewBox="0 0 500 250">
  <!-- Text "bgo" -->
  <path d="M110 180 C90 180, 80 160, 80 140 C80 120, 90 100, 110 100 C130 100, 140 120, 140 130 L120 130 C120 125, 115 120, 110 120 C100 120, 95 130, 95 140 C95 150, 100 160, 110 160 C115 160, 120 155, 120 150 L140 150 C140 160, 130 180, 110 180 Z" fill="white"/>
  <path d="M200 180 C180 180, 160 160, 160 140 C160 120, 180 100, 200 100 C220 100, 240 120, 240 140 C240 160, 220 180, 200 180 Z M200 160 C210 160, 220 150, 220 140 C220 130, 210 120, 200 120 C190 120, 180 130, 180 140 C180 150, 190 160, 200 160 Z" fill="white"/>
  <path d="M310 180 C290 180, 270 160, 270 140 C270 120, 290 100, 310 100 C330 100, 350 120, 350 140 C350 160, 330 180, 310 180 Z M310 160 C320 160, 330 150, 330 140 C330 130, 320 120, 310 120 C300 120, 290 130, 290 140 C290 150, 300 160, 310 160 Z" fill="white"/>
  
  <!-- Text "montage&" -->
  <path d="M370 140 L375 140 L375 150 C375 153, 377 155, 380 155 C383 155, 385 153, 385 150 L385 140 L390 140 L390 150 C390 156, 385 160, 380 160 C375 160, 370 156, 370 150 Z" fill="#3B71A9"/>
  <path d="M395 140 L400 140 L400 158 L395 158 Z M395 132 L400 132 L400 137 L395 137 Z" fill="#3B71A9"/>
  <path d="M410 140 L415 140 L415 158 L410 158 Z M410 132 L415 132 L415 137 L410 137 Z" fill="#3B71A9"/>
  
  <!-- Text "logistik" -->
  <path d="M370 180 L375 180 L375 198 L370 198 Z M370 172 L375 172 L375 177 L370 177 Z" fill="#3B71A9"/>
  <path d="M380 180 L385 180 L385 198 L380 198 Z" fill="#3B71A9"/>
  <path d="M395 190 C395 194, 397 196, 400 196 C403 196, 405 194, 405 190 L405 180 L410 180 L410 190 C410 196, 405 200, 400 200 C395 200, 390 196, 390 190 L390 180 L395 180 Z" fill="#3B71A9"/>
  <path d="M415 180 L420 180 L420 198 L415 198 Z" fill="#3B71A9"/>
  <path d="M425 190 C425 194, 427 196, 430 196 C433 196, 435 194, 435 190 L435 180 L440 180 L440 190 C440 196, 435 200, 430 200 C425 200, 420 196, 420 190 L420 180 L425 180 Z" fill="#3B71A9"/>
</svg>
